{
   "accessors" : [
      {
         "bufferView" : 0,
         "componentType" : 5123,
         "count" : 2514,
         "max" : [ 2513 ],
         "min" : [ 0 ],
         "name" : "buffer-0-accessor-indices-buffer-0-mesh-0",
         "type" : "SCALAR"
      },
      {
         "bufferView" : 2,
         "componentType" : 5126,
         "count" : 2514,
         "max" : [ 1053.177978515625, 479.5187072753906, 0 ],
         "min" : [ 0, -0.1666000038385391, -1468.67822265625 ],
         "name" : "buffer-0-accessor-position-buffer-0-mesh-0",
         "type" : "VEC3"
      },
      {
         "bufferView" : 2,
         "byteOffset" : 30168,
         "componentType" : 5126,
         "count" : 2514,
         "max" : [ 0.8607000112533569, 1, 0.8607000112533569 ],
         "min" : [ -0.8998000025749207, -1, -0.8607000112533569 ],
         "name" : "buffer-0-accessor-normal-buffer-0-mesh-0",
         "type" : "VEC3"
      },
      {
         "bufferView" : 1,
         "componentType" : 5126,
         "count" : 2514,
         "max" : [ 1, 0 ],
         "min" : [ -0.02659999951720238, -1 ],
         "name" : "buffer-0-accessor-texcoord-buffer-0-mesh-0",
         "type" : "VEC2"
      },
      {
         "bufferView" : 3,
         "componentType" : 5126,
         "count" : 0,
         "max" : [ 0, 0, 0, 0 ],
         "min" : [ 0, 0, 0, 0 ],
         "name" : "buffer-0-accessor-color-buffer-0-mesh-0",
         "type" : "VEC4"
      },
      {
         "bufferView" : 0,
         "byteOffset" : 5028,
         "componentType" : 5123,
         "count" : 606,
         "max" : [ 605 ],
         "min" : [ 0 ],
         "name" : "buffer-0-accessor-indices-buffer-0-mesh-0",
         "type" : "SCALAR"
      },
      {
         "bufferView" : 2,
         "byteOffset" : 60336,
         "componentType" : 5126,
         "count" : 606,
         "max" : [ 1416.983764648438, 519.563720703125, 0 ],
         "min" : [ 0, -4.831099987030029, -1686.44775390625 ],
         "name" : "buffer-0-accessor-position-buffer-0-mesh-0",
         "type" : "VEC3"
      },
      {
         "bufferView" : 2,
         "byteOffset" : 67608,
         "componentType" : 5126,
         "count" : 606,
         "max" : [ 0.9973999857902527, 1, 0.9998000264167786 ],
         "min" : [ -0.9976000189781189, -1, -0.9998000264167786 ],
         "name" : "buffer-0-accessor-normal-buffer-0-mesh-0",
         "type" : "VEC3"
      },
      {
         "bufferView" : 1,
         "byteOffset" : 20112,
         "componentType" : 5126,
         "count" : 606,
         "max" : [ 1, 0 ],
         "min" : [ -0.01470000017434359, -1 ],
         "name" : "buffer-0-accessor-texcoord-buffer-0-mesh-0",
         "type" : "VEC2"
      },
      {
         "bufferView" : 3,
         "componentType" : 5126,
         "count" : 0,
         "max" : [ 0, 0, 0, 0 ],
         "min" : [ 0, 0, 0, 0 ],
         "name" : "buffer-0-accessor-color-buffer-0-mesh-0",
         "type" : "VEC4"
      },
      {
         "bufferView" : 0,
         "byteOffset" : 6240,
         "componentType" : 5123,
         "count" : 36,
         "max" : [ 35 ],
         "min" : [ 0 ],
         "name" : "buffer-0-accessor-indices-buffer-0-mesh-0",
         "type" : "SCALAR"
      },
      {
         "bufferView" : 2,
         "byteOffset" : 74880,
         "componentType" : 5126,
         "count" : 36,
         "max" : [ 928.7322998046875, 109.0799026489258, 0 ],
         "min" : [ 0, 0, -1456.726684570312 ],
         "name" : "buffer-0-accessor-position-buffer-0-mesh-0",
         "type" : "VEC3"
      },
      {
         "bufferView" : 2,
         "byteOffset" : 75312,
         "componentType" : 5126,
         "count" : 36,
         "max" : [ 0.8607000112533569, 1, 0.8607000112533569 ],
         "min" : [ -0.8607000112533569, -1, -0.8607000112533569 ],
         "name" : "buffer-0-accessor-normal-buffer-0-mesh-0",
         "type" : "VEC3"
      },
      {
         "bufferView" : 1,
         "byteOffset" : 24960,
         "componentType" : 5126,
         "count" : 36,
         "max" : [ 1, 0 ],
         "min" : [ 0, -1 ],
         "name" : "buffer-0-accessor-texcoord-buffer-0-mesh-0",
         "type" : "VEC2"
      },
      {
         "bufferView" : 3,
         "componentType" : 5126,
         "count" : 0,
         "max" : [ 0, 0, 0, 0 ],
         "min" : [ 0, 0, 0, 0 ],
         "name" : "buffer-0-accessor-color-buffer-0-mesh-0",
         "type" : "VEC4"
      }
   ],
   "asset" : {
      "extras" : {
         "GOOGLE_processor_version" : 294144208
      },
      "generator" : "Obj2GltfConverter",
      "version" : "2.0"
   },
   "bufferViews" : [
      {
         "buffer" : 0,
         "byteLength" : 6312,
         "byteStride" : 0,
         "name" : "buffer-0-bufferview-ushort",
         "target" : 34963
      },
      {
         "buffer" : 0,
         "byteLength" : 25248,
         "byteOffset" : 6312,
         "byteStride" : 8,
         "name" : "buffer-0-bufferview-vec2",
         "target" : 34962
      },
      {
         "buffer" : 0,
         "byteLength" : 75744,
         "byteOffset" : 31560,
         "byteStride" : 12,
         "name" : "buffer-0-bufferview-vec3",
         "target" : 34962
      },
      {
         "buffer" : 0,
         "byteLength" : 1,
         "name" : "buffer-0-bufferview-vec4"
      }
   ],
   "buffers" : [
      {
         "byteLength" : 107312,
         "name" : "buffer-0",
         "uri" : "Computer.bin"
      }
   ],
   "cameras" : [
      {
         "perspective" : {
            "yfov" : 0.7853981633974483,
            "znear" : 0.1000000014901161
         },
         "type" : "perspective"
      }
   ],
   "extensions" : {
      "KHR_lights_punctual" : {
         "lights" : [
            {
               "color" : [ 1, 0.9333333333333333, 0.8666666666666667 ],
               "intensity" : 0.25,
               "name" : "headLight",
               "type" : "directional"
            },
            {
               "color" : [ 1, 0.9333333333333333, 0.8666666666666667 ],
               "intensity" : 0.324999988079071,
               "name" : "keyLight",
               "type" : "directional"
            }
         ]
      }
   },
   "extensionsUsed" : [ "GOOGLE_backgrounds", "GOOGLE_camera_settings", "KHR_lights_punctual" ],
   "extras" : {
      "GOOGLE_initial_camera_motion" : {
         "motionPath" : "FULL_ROTATION"
      },
      "GOOGLE_lighting_rig" : {
         "disableShadows" : false
      }
   },
   "materials" : [
      {
         "doubleSided" : true,
         "name" : "02___Default",
         "pbrMetallicRoughness" : {
            "baseColorFactor" : [ 0.0392, 0.0392, 0.0392, 1 ],
            "metallicFactor" : 0,
            "roughnessFactor" : 0.9699476628648295
         }
      },
      {
         "doubleSided" : true,
         "name" : "_crayfishdiffuse",
         "pbrMetallicRoughness" : {
            "baseColorFactor" : [ 0.8431, 0.8118, 0.6039, 1 ],
            "metallicFactor" : 0,
            "roughnessFactor" : 0.9124375732201923
         }
      },
      {
         "doubleSided" : true,
         "name" : "03___Default",
         "pbrMetallicRoughness" : {
            "baseColorFactor" : [ 0.8941, 0.2627, 0.0902, 1 ],
            "metallicFactor" : 0,
            "roughnessFactor" : 0.9699476628648295
         }
      }
   ],
   "meshes" : [
      {
         "name" : "buffer-0-mesh-0",
         "primitives" : [
            {
               "attributes" : {
                  "NORMAL" : 2,
                  "POSITION" : 1,
                  "TEXCOORD_0" : 3
               },
               "indices" : 0,
               "material" : 0
            },
            {
               "attributes" : {
                  "NORMAL" : 7,
                  "POSITION" : 6,
                  "TEXCOORD_0" : 8
               },
               "indices" : 5,
               "material" : 1
            },
            {
               "attributes" : {
                  "NORMAL" : 12,
                  "POSITION" : 11,
                  "TEXCOORD_0" : 13
               },
               "indices" : 10,
               "material" : 2
            }
         ]
      }
   ],
   "nodes" : [
      {
         "mesh" : 0,
         "name" : "node-0"
      },
      {
         "children" : [ 2 ]
      },
      {
         "children" : [ 3 ],
         "extras" : {
            "isTransformNode" : 1
         },
         "translation" : [ 1106.17199826764, 230.6997591432663, -1379.751204506732 ]
      },
      {
         "children" : [ 0 ],
         "translation" : [ -1106.17199826764, -230.6997591432663, 1379.751204506732 ]
      },
      {
         "camera" : 0,
         "children" : [ 5 ],
         "rotation" : [
            -0.221924054279299,
            -0.2518950318538475,
            -0.05946428056214896,
            0.9400864887853746
         ],
         "translation" : [ 529.6688080401887, 712.6042886327667, -465.8131600543607 ]
      },
      {
         "extensions" : {
            "KHR_lights_punctual" : {
               "light" : 0
            }
         },
         "extras" : {
            "isHeadLight" : 1
         },
         "name" : "headLightNode",
         "translation" : [ -616.9969793208128, 308.4984896604064, 308.4984896604064 ]
      },
      {
         "extensions" : {
            "KHR_lights_punctual" : {
               "light" : 1
            }
         },
         "extras" : {
            "isKeyLight" : 1
         },
         "name" : "keyLightNode",
         "rotation" : [ -0.7505326882858236, -0.3752663441429118, 0, 0.5439447166468927 ],
         "scale" : [ 0, 0, 623.1669491140209 ],
         "translation" : [ 291.3837010921835, 1306.742864383125, -1955.15023839993 ]
      }
   ],
   "scene" : 0,
   "scenes" : [
      {
         "extensions" : {
            "GOOGLE_backgrounds" : {
               "color" : [ 0.6196078431372549, 0.6196078431372549, 0.6196078431372549 ]
            },
            "GOOGLE_camera_settings" : {}
         },
         "extras" : {
            "GOOGLE_camera_index" : {
               "cameraIndex" : 0,
               "nodeIndex" : 4
            },
            "GOOGLE_geometry_data" : {
               "stats" : {
                  "centroid" : [ 914.5506502062044, 60.40896615508296, -1331.983289285909 ],
                  "radius" : 616.9969793208128,
                  "stdev" : 174.7352395937675
               },
               "visualCenterPoint" : [ 1106.17199826764, 230.6997591432663, -1379.751204506732 ]
            },
            "GOOGLE_hemi_light" : {
               "groundColor" : [ 0.6196078431372549, 0.6196078431372549, 0.6196078431372549 ]
            }
         },
         "name" : "scene-0",
         "nodes" : [ 1, 4, 6 ]
      }
   ]
}
