<svg xmlns="http://www.w3.org/2000/svg" width="181.99" height="68.678" viewBox="0 0 181.99 68.678"><ellipse cx="5.852" cy="5.852" rx="5.852" ry="5.852" transform="translate(11.613 56.974)" fill="#3c9"/><ellipse cx="5.852" cy="5.852" rx="5.852" ry="5.852" transform="translate(68.586 56.974)" fill="#e01272"/><ellipse cx="5.852" cy="5.852" rx="5.852" ry="5.852" transform="translate(68.586)" fill="#939"/><ellipse cx="5.852" cy="5.852" rx="5.852" ry="5.852" transform="translate(11.613)" fill="#960"/><ellipse cx="5.852" cy="5.852" rx="5.852" ry="5.852" transform="translate(0 28.487)" fill="#06c"/><path d="M88.471,54.017l-.454.136a9.243,9.243,0,0,1-1.678.318,13.91,13.91,0,0,1-3.629.045A20.982,20.982,0,0,1,80.9,56.694a27.171,27.171,0,0,0-4.037-2.858l-1,.318a9.243,9.243,0,0,1-1.678.318,11.939,11.939,0,0,1-2.54.136A35.922,35.922,0,0,1,64.7,64.723a11.15,11.15,0,0,1-1.27.091V54.562a12.548,12.548,0,0,1-2.268-.045v10.3a11.123,11.123,0,0,1-1.225-.091,36.444,36.444,0,0,1-7.3-10.887,26.332,26.332,0,0,1,4.672-1.315,4.777,4.777,0,0,1-.771-1.315c-.091-.227-.181-.5-.272-.771a31.142,31.142,0,0,0-4.445,1.316,38.364,38.364,0,0,1-2.177-11.477h6.4v-2h-6.4A35.727,35.727,0,0,1,51.819,26.8a25.113,25.113,0,0,0,3.992,1.179,8.807,8.807,0,0,1-.091-1.089,11.12,11.12,0,0,1,.091-1.225,25.774,25.774,0,0,1-3.175-1,36.444,36.444,0,0,1,7.3-10.887c.408-.045.817-.045,1.225-.091V20.45a7.133,7.133,0,0,1,2.268,0V13.736c.408,0,.816.045,1.27.091a36.757,36.757,0,0,1,7.258,10.8,27.767,27.767,0,0,1-3.13,1,5.738,5.738,0,0,1,.136,1.27,7.446,7.446,0,0,1-.091,1.043,28.469,28.469,0,0,0,3.946-1.225c.272.817.544,1.588.771,2.4a18.2,18.2,0,0,1,2.268-.363c-.272-1-.59-2-.953-2.949a28.77,28.77,0,0,0,6.033-3.946,25.762,25.762,0,0,1,5.534,9.3c.045.045.136.091.181.136h0c.227.181.454.408.68.59a13.632,13.632,0,0,1,2.812-3.9,30.157,30.157,0,0,0-5.9-9.208l2.177-2.177-1.406-1.406-2.177,2.177a30.062,30.062,0,0,0-41.1-.091l-2.087-2.087-1.406,1.406,2.087,2.087a29.723,29.723,0,0,0-8.21,19.642H30v2h2.087A30,30,0,0,0,40.252,59.96l-2.087,2.087,1.406,1.406,2.087-2.087A30.058,30.058,0,0,0,82.8,61.23l2.177,2.177,1.361-1.361-2.177-2.177A29.943,29.943,0,0,0,88.471,54.017Zm-9.163-33.7a28.406,28.406,0,0,1-5.262,3.447,38.658,38.658,0,0,0-5.716-9.254A24.967,24.967,0,0,1,79.308,20.314ZM56.4,14.417a37.816,37.816,0,0,0-5.806,9.435,26.675,26.675,0,0,1-5.443-3.538A25.145,25.145,0,0,1,56.4,14.417ZM43.472,21.9a26.847,26.847,0,0,0,6.26,4.037,39.911,39.911,0,0,0-2.359,12.338H36.668A25.262,25.262,0,0,1,43.472,21.9Zm-6.8,18.417H47.419a38.4,38.4,0,0,0,2.359,12.338,28.878,28.878,0,0,0-6.26,4.037A25.077,25.077,0,0,1,36.668,40.318Zm8.437,18.009a27.973,27.973,0,0,1,5.443-3.538,39.194,39.194,0,0,0,5.806,9.435A26.1,26.1,0,0,1,45.105,58.327ZM68.33,64.133a40.157,40.157,0,0,0,5.716-9.254,26.279,26.279,0,0,1,5.262,3.447A25.931,25.931,0,0,1,68.33,64.133Zm39.918-17.691a4.239,4.239,0,0,1,.363,1.769,3.167,3.167,0,0,1-1.769,2.722,10.587,10.587,0,0,1-5.443,1.134,15.9,15.9,0,0,1-4.944-.726,10.663,10.663,0,0,1-6.759-6.26,14.4,14.4,0,0,1-1-5.67,14.16,14.16,0,0,1,.953-5.4,12.034,12.034,0,0,1,2.631-3.946,10.938,10.938,0,0,1,3.9-2.45,13.9,13.9,0,0,1,4.808-.817,11.406,11.406,0,0,1,5.625,1.179,3.507,3.507,0,0,1,2,3.039,3.236,3.236,0,0,1-.5,1.769,4.239,4.239,0,0,1-.726.817,7.5,7.5,0,0,0-4.9-1.814,7.575,7.575,0,1,0,4.854,13.382A4.313,4.313,0,0,1,108.248,46.442ZM84.751,33.6c-1.588-1.315-3.9-1.951-6.85-1.951a15.383,15.383,0,0,0-4.491.59,11,11,0,0,0-3.357,1.542,3.934,3.934,0,0,0-1.225,1.225,2.962,2.962,0,0,0-.454,1.724V48.529a3.992,3.992,0,0,0,.272,1.588,2.229,2.229,0,0,0,.726.953,2.306,2.306,0,0,0,1.179.454,8.132,8.132,0,0,0,1.542.136,11.619,11.619,0,0,0,1.769-.136,8.64,8.64,0,0,0,1.225-.227V37.687A3.881,3.881,0,0,1,76.4,37.1a5.973,5.973,0,0,1,1.542-.181,2.7,2.7,0,0,1,1.86.59,2.194,2.194,0,0,1,.68,1.769v9.3a3.992,3.992,0,0,0,.272,1.588,2.228,2.228,0,0,0,.726.953,2.305,2.305,0,0,0,1.179.454,8.13,8.13,0,0,0,1.542.136,11.618,11.618,0,0,0,1.769-.136,8.641,8.641,0,0,0,1.225-.227V39A6.585,6.585,0,0,0,84.751,33.6ZM62.343,23.4a3.659,3.659,0,0,0-2.676,1.043,3.453,3.453,0,0,0-1,2.54,3.526,3.526,0,0,0,1,2.54,3.587,3.587,0,0,0,2.676,1.043,3.659,3.659,0,0,0,2.676-1.043,3.453,3.453,0,0,0,1-2.54,3.526,3.526,0,0,0-1-2.54A3.488,3.488,0,0,0,62.343,23.4Zm55.885,4.4a2.813,2.813,0,0,0-1.179-.5,8.286,8.286,0,0,0-1.588-.136,12.684,12.684,0,0,0-1.814.136c-.635.091-1.089.181-1.361.227V48.3a5.226,5.226,0,0,0,.227,1.633,2.281,2.281,0,0,0,.726,1,2.813,2.813,0,0,0,1.179.5,8.286,8.286,0,0,0,1.588.136,12.214,12.214,0,0,0,1.814-.136,10.244,10.244,0,0,0,1.361-.227V30.429a5.225,5.225,0,0,0-.227-1.633A2.123,2.123,0,0,0,118.228,27.8ZM64.7,32.743a2.305,2.305,0,0,0-1.179-.454,8.131,8.131,0,0,0-1.542-.136,11.036,11.036,0,0,0-1.724.136c-.544.091-1,.181-1.27.227V48.529a3.992,3.992,0,0,0,.272,1.588,2.229,2.229,0,0,0,.726.953,2.306,2.306,0,0,0,1.179.454,8.131,8.131,0,0,0,1.542.136,11.037,11.037,0,0,0,1.724-.136c.544-.091,1-.181,1.27-.227V35.283a3.992,3.992,0,0,0-.272-1.588A2.229,2.229,0,0,0,64.7,32.743ZM174.975,46.034H164.859V41.906h7.258a2.257,2.257,0,0,0,1.678-.635,2.99,2.99,0,0,0,.635-2.132,5.432,5.432,0,0,0-.227-1.5,5.31,5.31,0,0,0-.5-1.134h-8.846V32.833h8.3a2.442,2.442,0,0,0,1.724-.635,2.794,2.794,0,0,0,.635-2.132,5.179,5.179,0,0,0-.227-1.5,4.451,4.451,0,0,0-.5-1.134H161.82a3.491,3.491,0,0,0-2.676,1,3.666,3.666,0,0,0-1,2.676V47.757a3.491,3.491,0,0,0,1,2.676,3.665,3.665,0,0,0,2.676,1h11.522a2.442,2.442,0,0,0,1.724-.635,2.861,2.861,0,0,0,.635-2.132,5.18,5.18,0,0,0-.227-1.5A5.307,5.307,0,0,0,174.975,46.034Zm20.912-6.487a14.778,14.778,0,0,0-5.67-2.994l-2.087-.68a7.29,7.29,0,0,1-1.542-.68,1.073,1.073,0,0,1-.5-.953,1.4,1.4,0,0,1,.816-1.225,5.3,5.3,0,0,1,2.586-.5,11.7,11.7,0,0,1,3.175.408,9.363,9.363,0,0,1,2.313.953,5.782,5.782,0,0,0,1.134-1.225,3.214,3.214,0,0,0,.454-1.769,2.69,2.69,0,0,0-.59-1.769,4.649,4.649,0,0,0-1.633-1.27,9.007,9.007,0,0,0-2.495-.726,22.559,22.559,0,0,0-3.13-.227,11.652,11.652,0,0,0-7.212,2,6.415,6.415,0,0,0-2.586,5.353,6.581,6.581,0,0,0,.59,2.949,5.948,5.948,0,0,0,1.588,2.087,9.3,9.3,0,0,0,2.45,1.5c.953.408,2,.817,3.13,1.179l1.633.544a8.217,8.217,0,0,1,1.769.817,1.368,1.368,0,0,1,.635,1.179,1.653,1.653,0,0,1-.771,1.361,4.655,4.655,0,0,1-2.722.59,9.754,9.754,0,0,1-3.493-.635,10.041,10.041,0,0,1-2.676-1.5,4.553,4.553,0,0,0-1.452,1.225,2.921,2.921,0,0,0-.68,1.951,3.239,3.239,0,0,0,.635,1.951,5.251,5.251,0,0,0,1.814,1.406,10.665,10.665,0,0,0,2.722.862,19.612,19.612,0,0,0,3.357.318c3.4,0,5.988-.68,7.757-2.087a6.477,6.477,0,0,0,2.631-5.4A6.275,6.275,0,0,0,195.887,39.547Zm-53.8-12.157H124.941a2.393,2.393,0,0,0-1.769.68,3.031,3.031,0,0,0-.68,2.223,6.1,6.1,0,0,0,.227,1.588,4.172,4.172,0,0,0,.5,1.179h5.9V48.347a5.225,5.225,0,0,0,.227,1.633,2.281,2.281,0,0,0,.726,1,2.813,2.813,0,0,0,1.179.5,8.63,8.63,0,0,0,1.588.136,12.215,12.215,0,0,0,1.814-.136,10.245,10.245,0,0,0,1.361-.227V33.015h4.355a2.393,2.393,0,0,0,1.769-.68,3.031,3.031,0,0,0,.68-2.223,6.1,6.1,0,0,0-.227-1.588A4.452,4.452,0,0,0,142.088,27.39Zm10.025.408a2.813,2.813,0,0,0-1.179-.5,8.286,8.286,0,0,0-1.588-.136,12.684,12.684,0,0,0-1.814.136c-.635.091-1.089.181-1.361.227V48.3a5.225,5.225,0,0,0,.227,1.633,2.281,2.281,0,0,0,.726,1,2.813,2.813,0,0,0,1.179.5,8.286,8.286,0,0,0,1.588.136,12.214,12.214,0,0,0,1.814-.136,10.244,10.244,0,0,0,1.361-.227V30.429a5.226,5.226,0,0,0-.227-1.633A2.123,2.123,0,0,0,152.113,27.8ZM108.248,46.442a4.239,4.239,0,0,1,.363,1.769,3.167,3.167,0,0,1-1.769,2.722,10.587,10.587,0,0,1-5.443,1.134,15.9,15.9,0,0,1-4.944-.726,10.663,10.663,0,0,1-6.759-6.26,14.4,14.4,0,0,1-1-5.67,14.16,14.16,0,0,1,.953-5.4,12.034,12.034,0,0,1,2.631-3.946,10.938,10.938,0,0,1,3.9-2.45,13.9,13.9,0,0,1,4.808-.817,11.406,11.406,0,0,1,5.625,1.179,3.507,3.507,0,0,1,2,3.039,3.236,3.236,0,0,1-.5,1.769,4.239,4.239,0,0,1-.726.817,7.5,7.5,0,0,0-4.9-1.814,7.575,7.575,0,1,0,4.854,13.382A4.313,4.313,0,0,1,108.248,46.442ZM84.751,33.6c-1.588-1.315-3.9-1.951-6.85-1.951a15.383,15.383,0,0,0-4.491.59,11,11,0,0,0-3.357,1.542,3.934,3.934,0,0,0-1.225,1.225,2.962,2.962,0,0,0-.454,1.724V48.529a3.992,3.992,0,0,0,.272,1.588,2.229,2.229,0,0,0,.726.953,2.306,2.306,0,0,0,1.179.454,8.132,8.132,0,0,0,1.542.136,11.619,11.619,0,0,0,1.769-.136,8.64,8.64,0,0,0,1.225-.227V37.687A3.881,3.881,0,0,1,76.4,37.1a5.973,5.973,0,0,1,1.542-.181,2.7,2.7,0,0,1,1.86.59,2.194,2.194,0,0,1,.68,1.769v9.3a3.992,3.992,0,0,0,.272,1.588,2.228,2.228,0,0,0,.726.953,2.305,2.305,0,0,0,1.179.454,8.13,8.13,0,0,0,1.542.136,11.618,11.618,0,0,0,1.769-.136,8.641,8.641,0,0,0,1.225-.227V39A6.585,6.585,0,0,0,84.751,33.6ZM62.343,23.4a3.659,3.659,0,0,0-2.676,1.043,3.453,3.453,0,0,0-1,2.54,3.526,3.526,0,0,0,1,2.54,3.587,3.587,0,0,0,2.676,1.043,3.659,3.659,0,0,0,2.676-1.043,3.453,3.453,0,0,0,1-2.54,3.526,3.526,0,0,0-1-2.54A3.488,3.488,0,0,0,62.343,23.4Zm55.885,4.4a2.813,2.813,0,0,0-1.179-.5,8.286,8.286,0,0,0-1.588-.136,12.684,12.684,0,0,0-1.814.136c-.635.091-1.089.181-1.361.227V48.3a5.226,5.226,0,0,0,.227,1.633,2.281,2.281,0,0,0,.726,1,2.813,2.813,0,0,0,1.179.5,8.286,8.286,0,0,0,1.588.136,12.214,12.214,0,0,0,1.814-.136,10.244,10.244,0,0,0,1.361-.227V30.429a5.225,5.225,0,0,0-.227-1.633A2.123,2.123,0,0,0,118.228,27.8ZM64.7,32.743a2.305,2.305,0,0,0-1.179-.454,8.131,8.131,0,0,0-1.542-.136,11.036,11.036,0,0,0-1.724.136c-.544.091-1,.181-1.27.227V48.529a3.992,3.992,0,0,0,.272,1.588,2.229,2.229,0,0,0,.726.953,2.306,2.306,0,0,0,1.179.454,8.131,8.131,0,0,0,1.542.136,11.037,11.037,0,0,0,1.724-.136c.544-.091,1-.181,1.27-.227V35.283a3.992,3.992,0,0,0-.272-1.588A2.229,2.229,0,0,0,64.7,32.743ZM174.975,46.034H164.859V41.906h7.258a2.257,2.257,0,0,0,1.678-.635,2.99,2.99,0,0,0,.635-2.132,5.432,5.432,0,0,0-.227-1.5,5.31,5.31,0,0,0-.5-1.134h-8.846V32.833h8.3a2.442,2.442,0,0,0,1.724-.635,2.794,2.794,0,0,0,.635-2.132,5.179,5.179,0,0,0-.227-1.5,4.451,4.451,0,0,0-.5-1.134H161.82a3.491,3.491,0,0,0-2.676,1,3.666,3.666,0,0,0-1,2.676V47.757a3.491,3.491,0,0,0,1,2.676,3.665,3.665,0,0,0,2.676,1h11.522a2.442,2.442,0,0,0,1.724-.635,2.861,2.861,0,0,0,.635-2.132,5.18,5.18,0,0,0-.227-1.5A5.307,5.307,0,0,0,174.975,46.034Zm20.912-6.487a14.778,14.778,0,0,0-5.67-2.994l-2.087-.68a7.29,7.29,0,0,1-1.542-.68,1.073,1.073,0,0,1-.5-.953,1.4,1.4,0,0,1,.816-1.225,5.3,5.3,0,0,1,2.586-.5,11.7,11.7,0,0,1,3.175.408,9.363,9.363,0,0,1,2.313.953,5.782,5.782,0,0,0,1.134-1.225,3.214,3.214,0,0,0,.454-1.769,2.69,2.69,0,0,0-.59-1.769,4.649,4.649,0,0,0-1.633-1.27,9.007,9.007,0,0,0-2.495-.726,22.559,22.559,0,0,0-3.13-.227,11.652,11.652,0,0,0-7.212,2,6.415,6.415,0,0,0-2.586,5.353,6.581,6.581,0,0,0,.59,2.949,5.948,5.948,0,0,0,1.588,2.087,9.3,9.3,0,0,0,2.45,1.5c.953.408,2,.817,3.13,1.179l1.633.544a8.217,8.217,0,0,1,1.769.817,1.368,1.368,0,0,1,.635,1.179,1.653,1.653,0,0,1-.771,1.361,4.655,4.655,0,0,1-2.722.59,9.754,9.754,0,0,1-3.493-.635,10.041,10.041,0,0,1-2.676-1.5,4.553,4.553,0,0,0-1.452,1.225,2.921,2.921,0,0,0-.68,1.951,3.239,3.239,0,0,0,.635,1.951,5.251,5.251,0,0,0,1.814,1.406,10.665,10.665,0,0,0,2.722.862,19.612,19.612,0,0,0,3.357.318c3.4,0,5.988-.68,7.757-2.087a6.477,6.477,0,0,0,2.631-5.4A6.275,6.275,0,0,0,195.887,39.547Zm-53.8-12.157H124.941a2.393,2.393,0,0,0-1.769.68,3.031,3.031,0,0,0-.68,2.223,6.1,6.1,0,0,0,.227,1.588,4.172,4.172,0,0,0,.5,1.179h5.9V48.347a5.225,5.225,0,0,0,.227,1.633,2.281,2.281,0,0,0,.726,1,2.813,2.813,0,0,0,1.179.5,8.63,8.63,0,0,0,1.588.136,12.215,12.215,0,0,0,1.814-.136,10.245,10.245,0,0,0,1.361-.227V33.015h4.355a2.393,2.393,0,0,0,1.769-.68,3.031,3.031,0,0,0,.68-2.223,6.1,6.1,0,0,0-.227-1.588A4.452,4.452,0,0,0,142.088,27.39Zm10.025.408a2.813,2.813,0,0,0-1.179-.5,8.286,8.286,0,0,0-1.588-.136,12.684,12.684,0,0,0-1.814.136c-.635.091-1.089.181-1.361.227V48.3a5.225,5.225,0,0,0,.227,1.633,2.281,2.281,0,0,0,.726,1,2.813,2.813,0,0,0,1.179.5,8.286,8.286,0,0,0,1.588.136,12.214,12.214,0,0,0,1.814-.136,10.244,10.244,0,0,0,1.361-.227V30.429a5.226,5.226,0,0,0-.227-1.633A2.123,2.123,0,0,0,152.113,27.8ZM111.469,61.683V55.378h1.089v6.305Zm5.126,0-1.814-4.445h-.045v4.445h-.953V55.378h1.225l1.769,4.491h.045V55.378h.907v6.305Zm4.037-5.4v5.4h-1.043v-5.4h-1.179v-.907h3.447v.907Zm1.814,5.4V55.378h2.812v.953h-1.814v1.678h1.678v.862h-1.678v1.86h1.905v.953Zm6.487,0-.953-2.676h-.59v2.676h-1.043V55.378h1.814a3.525,3.525,0,0,1,.726.091,1.089,1.089,0,0,1,.544.318,1.632,1.632,0,0,1,.363.544,2.2,2.2,0,0,1,.136.817,2.677,2.677,0,0,1-.091.635,1.676,1.676,0,0,1-.227.5,1.059,1.059,0,0,1-.318.318,1.358,1.358,0,0,1-.363.181l1.134,2.9Zm-.045-4.445a1.139,1.139,0,0,0-.091-.454.465.465,0,0,0-.227-.272.392.392,0,0,0-.272-.136.772.772,0,0,0-.318-.045h-.59v1.951h.59a.9.9,0,0,0,.635-.227A1.359,1.359,0,0,0,128.888,57.238Zm5.035,4.4a2.163,2.163,0,0,1-1,.227,1.677,1.677,0,0,1-.953-.272,2.6,2.6,0,0,1-.726-.68,3.154,3.154,0,0,1-.454-1.043,6.134,6.134,0,0,1-.181-1.315,4.014,4.014,0,0,1,.181-1.315,3.154,3.154,0,0,1,.454-1.043,2.075,2.075,0,0,1,.726-.68,1.653,1.653,0,0,1,.953-.227,2.1,2.1,0,0,1,.953.181,1.7,1.7,0,0,1,.68.59l-.635.771a1.066,1.066,0,0,0-.953-.544.723.723,0,0,0-.544.181,1.511,1.511,0,0,0-.408.5,3.4,3.4,0,0,0-.227.726,4.58,4.58,0,0,0,0,1.814,2.739,2.739,0,0,0,.227.726,1.418,1.418,0,0,0,.408.5.912.912,0,0,0,.59.181.723.723,0,0,0,.544-.181,1.564,1.564,0,0,0,.363-.408l.635.726A2.006,2.006,0,0,1,133.923,61.638Zm5.171-1.27a2.407,2.407,0,0,1-.363.771,1.364,1.364,0,0,1-.635.5,2.684,2.684,0,0,1-.907.181,1.8,1.8,0,0,1-.907-.181,1.638,1.638,0,0,1-.59-.5,1.976,1.976,0,0,1-.318-.771,3.092,3.092,0,0,1-.091-.953V55.333h1.089v3.992a2.208,2.208,0,0,0,.045.544c.045.181.091.363.136.5a1.973,1.973,0,0,0,.272.318.824.824,0,0,0,.907,0,.61.61,0,0,0,.272-.318.914.914,0,0,0,.136-.5,2.208,2.208,0,0,0,.045-.544V55.378h1.043v4.083A2.925,2.925,0,0,1,139.094,60.368Zm1.315,1.315V55.378H141.5v5.353h1.724v1H140.41Zm4.854-5.4v5.4H144.22v-5.4h-1.179v-.907h3.447v.907Zm5.625,4.083a2.407,2.407,0,0,1-.363.771,1.364,1.364,0,0,1-.635.5,2.685,2.685,0,0,1-.907.181,1.8,1.8,0,0,1-.907-.181,1.638,1.638,0,0,1-.59-.5,1.976,1.976,0,0,1-.318-.771,3.091,3.091,0,0,1-.091-.953V55.333h1.089v3.992a2.208,2.208,0,0,0,.045.544c.045.181.091.363.136.5a1.975,1.975,0,0,0,.272.318.824.824,0,0,0,.907,0,.61.61,0,0,0,.272-.318.914.914,0,0,0,.136-.5,2.208,2.208,0,0,0,.045-.544V55.378h1.043v4.083C150.979,59.778,150.934,60.1,150.888,60.368Zm3.9,1.315-1-2.676h-.59v2.676h-1.043V55.378h1.814a3.525,3.525,0,0,1,.726.091,1.089,1.089,0,0,1,.544.318,1.631,1.631,0,0,1,.363.544,2.2,2.2,0,0,1,.136.817,2.677,2.677,0,0,1-.091.635,1.677,1.677,0,0,1-.227.5,1.06,1.06,0,0,1-.318.318,1.357,1.357,0,0,1-.363.181l1.134,2.9Zm-.091-4.445a1.138,1.138,0,0,0-.091-.454.464.464,0,0,0-.227-.272.392.392,0,0,0-.272-.136.772.772,0,0,0-.318-.045h-.59v1.951h.59a.9.9,0,0,0,.635-.227A1.359,1.359,0,0,0,154.7,57.238Zm4.763,4.445-.318-1.361h-1.678l-.318,1.361H156.1l1.588-6.305h1.361l1.542,6.305Zm-1.089-5.307h0l-.726,3.13h1.406Zm2.9,5.307V55.378h1.089v5.353h1.724v1h-2.812Zm3.493,0V55.378h1.089v6.305Zm6.441-3.13a3.793,3.793,0,0,1-.635,2.313,2.194,2.194,0,0,1-1.86.817h-1.588V55.378h1.588a2.252,2.252,0,0,1,1.86.817A3.942,3.942,0,0,1,171.21,58.554Zm-1.089,0a6.792,6.792,0,0,0-.091-1,5.279,5.279,0,0,0-.272-.68,1.287,1.287,0,0,0-.454-.408,1.208,1.208,0,0,0-.544-.136h-.5v4.445h.5a1.077,1.077,0,0,0,.544-.136,1.287,1.287,0,0,0,.454-.408,1.537,1.537,0,0,0,.272-.68A6.792,6.792,0,0,0,170.121,58.554Zm4.627,3.13-.318-1.361h-1.678l-.318,1.361h-1.089l1.588-6.305h1.361l1.542,6.305Zm-1.134-5.307h0l-.726,3.13h1.406Zm6.986,2.177a3.793,3.793,0,0,1-.635,2.313,2.194,2.194,0,0,1-1.86.817h-1.588V55.378h1.588a2.252,2.252,0,0,1,1.86.817A3.942,3.942,0,0,1,180.6,58.554Zm-1.089,0a6.792,6.792,0,0,0-.091-1,5.284,5.284,0,0,0-.272-.68,1.287,1.287,0,0,0-.454-.408,1.208,1.208,0,0,0-.544-.136h-.5v4.445h.5a1.078,1.078,0,0,0,.544-.136,1.287,1.287,0,0,0,.454-.408,1.536,1.536,0,0,0,.272-.68A6.792,6.792,0,0,0,179.511,58.554Zm5.579.726v2.4h-1.043v-2.4l-1.633-3.9h1.179l.953,2.812h.045l.953-2.812h1.134Zm5.08-2.994v5.4h-1.043v-5.4h-1.179v-.907H191.4v.907Zm1.769,5.4V55.378h1.089v6.305Zm5.4-.045a2.163,2.163,0,0,1-1,.227,1.677,1.677,0,0,1-.953-.272,2.6,2.6,0,0,1-.726-.68,3.153,3.153,0,0,1-.454-1.043,6.132,6.132,0,0,1-.181-1.315,4.013,4.013,0,0,1,.181-1.315,3.153,3.153,0,0,1,.454-1.043,2.074,2.074,0,0,1,.726-.68,1.653,1.653,0,0,1,.953-.227,2.1,2.1,0,0,1,.953.181,1.7,1.7,0,0,1,.68.59l-.59.68a1.066,1.066,0,0,0-.953-.544.723.723,0,0,0-.544.181,1.511,1.511,0,0,0-.408.5,3.4,3.4,0,0,0-.227.726,4.579,4.579,0,0,0,0,1.814,2.737,2.737,0,0,0,.227.726,1.418,1.418,0,0,0,.408.5.911.911,0,0,0,.59.181.723.723,0,0,0,.544-.181,1.565,1.565,0,0,0,.363-.408l.635.726A1.953,1.953,0,0,1,197.338,61.638Zm-83.783,4.4a1.63,1.63,0,0,1-.091.5.988.988,0,0,1-.227.363,1.378,1.378,0,0,1-.318.227,1.325,1.325,0,0,1-.408.091h-.544v1.769h-.5V64.9h1.043a1,1,0,0,1,.363.045,1.359,1.359,0,0,1,.363.181,2.517,2.517,0,0,1,.272.363C113.6,65.63,113.556,65.811,113.556,66.038Zm-.5,0a.723.723,0,0,0-.181-.544.582.582,0,0,0-.454-.181h-.454v1.452h.454a.582.582,0,0,0,.454-.181A.861.861,0,0,0,113.057,66.038Zm2.586,2.949-.227-.953h-1.179l-.227.953h-.544l1.043-4.083h.68l1,4.083Zm-.817-3.629h0l-.544,2.223h1.043Zm3.447,3.629-.68-1.814h-.454v1.814h-.5V64.9h1.043a1.256,1.256,0,0,1,.408.045,1.358,1.358,0,0,1,.363.181.716.716,0,0,1,.227.363,1.929,1.929,0,0,1,.091.5,1.4,1.4,0,0,1-.045.454.731.731,0,0,1-.181.318l-.227.227a.293.293,0,0,1-.227.091l.771,1.905Zm0-2.994a.885.885,0,0,0-.045-.363.992.992,0,0,0-.136-.227.346.346,0,0,0-.227-.091,1.965,1.965,0,0,1-.227-.045h-.454v1.406h.5a.526.526,0,0,0,.454-.181A.808.808,0,0,0,118.273,65.993Zm2.9,2.994-.227-.953H119.77l-.227.953H119l1.043-4.083h.68l1,4.083Zm-.817-3.629h0l-.544,2.223h1.043Zm5.171,1.588a2.27,2.27,0,0,1-.408,1.5,1.319,1.319,0,0,1-1.134.544h-.953V64.9h.953a1.319,1.319,0,0,1,1.134.544A2.355,2.355,0,0,1,125.531,66.945Zm-.5,0a3.526,3.526,0,0,0-.091-.726,1.678,1.678,0,0,0-.227-.5.61.61,0,0,0-.318-.272,1.325,1.325,0,0,0-.408-.091h-.408v3.175h.408a1.325,1.325,0,0,0,.408-.091c.136-.045.227-.181.318-.272a1.276,1.276,0,0,0,.227-.5A3.525,3.525,0,0,0,125.032,66.945ZM128.8,66.9a5.024,5.024,0,0,1-.091.862,1.536,1.536,0,0,1-.272.68,2.152,2.152,0,0,1-.454.454,1.346,1.346,0,0,1-1.179,0,1.442,1.442,0,0,1-.454-.454,1.536,1.536,0,0,1-.272-.68,4.14,4.14,0,0,1,0-1.724,1.536,1.536,0,0,1,.272-.68,2.151,2.151,0,0,1,.454-.454,1.346,1.346,0,0,1,1.179,0,1.088,1.088,0,0,1,.454.454,1.536,1.536,0,0,1,.272.68A2.651,2.651,0,0,1,128.8,66.9Zm-.544,0a2.788,2.788,0,0,0-.045-.635,2.555,2.555,0,0,0-.181-.544,1.253,1.253,0,0,0-.272-.363.552.552,0,0,0-.726,0,2.515,2.515,0,0,0-.272.363.967.967,0,0,0-.136.544c0,.227-.045.408-.045.635a2.79,2.79,0,0,0,.045.635l.136.544a2.515,2.515,0,0,0,.272.363.552.552,0,0,0,.726,0,2.519,2.519,0,0,0,.272-.363,1.53,1.53,0,0,0,.181-.544A2.788,2.788,0,0,0,128.253,66.9Zm3.085,2a1.256,1.256,0,0,1-.59.136.912.912,0,0,1-.59-.181,1.441,1.441,0,0,1-.454-.454,1.536,1.536,0,0,1-.272-.68,4.139,4.139,0,0,1,0-1.724,2.364,2.364,0,0,1,.272-.68,1.442,1.442,0,0,1,.454-.454,1.287,1.287,0,0,1,.59-.181,1.256,1.256,0,0,1,.59.136.8.8,0,0,1,.408.363l-.318.363a.77.77,0,0,0-.272-.272.855.855,0,0,0-.363-.091.732.732,0,0,0-.408.136.705.705,0,0,0-.272.363,1.53,1.53,0,0,0-.181.544,4.468,4.468,0,0,0,0,1.27,2.556,2.556,0,0,0,.181.544,2.512,2.512,0,0,0,.272.363.732.732,0,0,0,.408.136.515.515,0,0,0,.363-.136l.272-.272.318.363A1.732,1.732,0,0,1,131.337,68.9Zm.862.091V64.9h1.724v.454H132.7v1.27h1.134v.454H132.7v1.452h1.27v.454Zm4.219,0L135.1,65.811h0v3.175h-.5V64.9h.635l1.27,3.175h0V64.9h.5v4.083Zm2.268-3.674v3.629h-.5V65.312h-.771v-.454H139.5v.454Zm1.179,3.674V64.9h1.724v.454h-1.225v1.27H141.5v.454h-1.134v1.452h1.27v.454Zm4.219-1.089a1.631,1.631,0,0,1-.091.5.952.952,0,0,1-.59.59,1.342,1.342,0,0,1-.454.091,1.255,1.255,0,0,1-.59-.136,1.152,1.152,0,0,1-.454-.363l.318-.363a.61.61,0,0,0,.318.272,1.325,1.325,0,0,0,.408.091.442.442,0,0,0,.408-.181.825.825,0,0,0,.181-.5.575.575,0,0,0-.045-.272c-.045-.091-.091-.136-.136-.227a.989.989,0,0,0-.227-.181l-.272-.136c-.091-.045-.227-.136-.318-.181a1.2,1.2,0,0,1-.272-.227.731.731,0,0,1-.181-.318,1.256,1.256,0,0,1-.045-.408,1.631,1.631,0,0,1,.091-.5.952.952,0,0,1,.59-.59,1.324,1.324,0,0,1,.408-.091,2.278,2.278,0,0,1,.544.091,2.131,2.131,0,0,1,.408.272l-.318.363a.731.731,0,0,0-.59-.272.409.409,0,0,0-.227.045c-.091.045-.136.045-.181.136a.991.991,0,0,0-.136.227.673.673,0,0,0-.045.318.575.575,0,0,0,.045.272.626.626,0,0,0,.136.181c.045.045.136.091.181.181s.136.091.227.136.227.136.318.181a1.2,1.2,0,0,1,.272.227,1.924,1.924,0,0,1,.227.318A.746.746,0,0,1,144.084,67.9Zm4.128-.953a2.27,2.27,0,0,1-.408,1.5,1.319,1.319,0,0,1-1.134.544h-.953V64.9h.953a1.319,1.319,0,0,1,1.134.544A2.355,2.355,0,0,1,148.212,66.945Zm-.5,0a3.525,3.525,0,0,0-.091-.726,1.677,1.677,0,0,0-.227-.5.61.61,0,0,0-.318-.272,1.325,1.325,0,0,0-.408-.091h-.408v3.175h.408a1.325,1.325,0,0,0,.408-.091c.136-.045.227-.181.318-.272a1.275,1.275,0,0,0,.227-.5A3.526,3.526,0,0,0,147.713,66.945Zm1.179,2.041V64.9h1.724v.454h-1.225v1.27h1.134v.454h-1.134v1.452h1.27v.454Zm3.4,0V64.9h1.724v.454h-1.225v1.27h1.134v.454h-1.134v1.452h1.27v.454Zm4.854-2.041a2.27,2.27,0,0,1-.408,1.5,1.319,1.319,0,0,1-1.134.544h-.953V64.9h.953a1.319,1.319,0,0,1,1.134.544A2.355,2.355,0,0,1,157.148,66.945Zm-.5,0a3.524,3.524,0,0,0-.091-.726,1.678,1.678,0,0,0-.227-.5.61.61,0,0,0-.318-.272,1.325,1.325,0,0,0-.408-.091H155.2v3.175h.408a1.325,1.325,0,0,0,.408-.091c.136-.045.227-.181.318-.272a1.276,1.276,0,0,0,.227-.5A3.525,3.525,0,0,0,156.649,66.945Zm3.493,1.179a.864.864,0,0,1-.227.454,1.223,1.223,0,0,1-.363.318,1.135,1.135,0,0,1-.59.136,1.256,1.256,0,0,1-.59-.136.84.84,0,0,1-.363-.318,2.116,2.116,0,0,1-.227-.454,2.217,2.217,0,0,1-.045-.59V64.859h.5V67.49a1.255,1.255,0,0,0,.045.408,1.068,1.068,0,0,0,.091.363.547.547,0,0,0,.227.227.771.771,0,0,0,.726,0c.091-.045.136-.136.227-.227a.854.854,0,0,0,.091-.363c0-.136.045-.272.045-.408V64.859h.5v2.676A2.4,2.4,0,0,1,160.142,68.125Zm2.676.771a1.256,1.256,0,0,1-.59.136.912.912,0,0,1-.59-.181,1.442,1.442,0,0,1-.454-.454,1.536,1.536,0,0,1-.272-.68,4.138,4.138,0,0,1,0-1.724,2.364,2.364,0,0,1,.272-.68,1.442,1.442,0,0,1,.454-.454,1.286,1.286,0,0,1,.59-.181,1.255,1.255,0,0,1,.59.136.8.8,0,0,1,.408.363l-.318.363a.77.77,0,0,0-.272-.272.855.855,0,0,0-.363-.091.732.732,0,0,0-.408.136.705.705,0,0,0-.272.363,1.531,1.531,0,0,0-.181.544,4.471,4.471,0,0,0,0,1.27,2.558,2.558,0,0,0,.181.544,2.515,2.515,0,0,0,.272.363.732.732,0,0,0,.408.136.515.515,0,0,0,.363-.136l.272-.272.318.363A.89.89,0,0,1,162.818,68.9Zm2.586.091-.227-.953H164l-.227.953h-.544L164.27,64.9h.68l1,4.083Zm-.771-3.629h0l-.544,2.223h1.043Zm3.584,3.538a1.256,1.256,0,0,1-.59.136.912.912,0,0,1-.59-.181,1.441,1.441,0,0,1-.454-.454,1.536,1.536,0,0,1-.272-.68,4.138,4.138,0,0,1,0-1.724,2.364,2.364,0,0,1,.272-.68,1.441,1.441,0,0,1,.454-.454,1.286,1.286,0,0,1,.59-.181,1.256,1.256,0,0,1,.59.136.8.8,0,0,1,.408.363l-.318.363a.77.77,0,0,0-.272-.272.854.854,0,0,0-.363-.091.732.732,0,0,0-.408.136.706.706,0,0,0-.272.363,1.53,1.53,0,0,0-.181.544,4.469,4.469,0,0,0,0,1.27,2.559,2.559,0,0,0,.181.544,2.516,2.516,0,0,0,.272.363.732.732,0,0,0,.408.136.515.515,0,0,0,.363-.136l.272-.272.318.363A1.171,1.171,0,0,1,168.216,68.9Zm.862.091V64.9h.5v4.083ZM173.07,66.9a5.027,5.027,0,0,1-.091.862,1.536,1.536,0,0,1-.272.68,2.15,2.15,0,0,1-.454.454,1.346,1.346,0,0,1-1.179,0,1.442,1.442,0,0,1-.454-.454,1.537,1.537,0,0,1-.272-.68,4.139,4.139,0,0,1,0-1.724,1.537,1.537,0,0,1,.272-.68,2.152,2.152,0,0,1,.454-.454,1.346,1.346,0,0,1,1.179,0,1.087,1.087,0,0,1,.454.454,1.537,1.537,0,0,1,.272.68A5.027,5.027,0,0,1,173.07,66.9Zm-.544,0a2.79,2.79,0,0,0-.045-.635,2.559,2.559,0,0,0-.181-.544,1.252,1.252,0,0,0-.272-.363.552.552,0,0,0-.726,0,2.518,2.518,0,0,0-.272.363.967.967,0,0,0-.136.544c0,.227-.045.408-.045.635a2.789,2.789,0,0,0,.045.635l.136.544a2.519,2.519,0,0,0,.272.363.552.552,0,0,0,.726,0,2.516,2.516,0,0,0,.272-.363,1.531,1.531,0,0,0,.181-.544A2.79,2.79,0,0,0,172.526,66.9Zm-.68-2.359h-.408l.5-.817h.5Zm3.674,4.445L174.2,65.811h0v3.175h-.5V64.9h.635l1.27,3.175h0V64.9h.5v4.083Zm4.309-1.089a1.631,1.631,0,0,1-.091.5.952.952,0,0,1-.59.59,1.342,1.342,0,0,1-.454.091,1.256,1.256,0,0,1-.59-.136,1.152,1.152,0,0,1-.454-.363l.318-.363a.61.61,0,0,0,.318.272,1.325,1.325,0,0,0,.408.091.442.442,0,0,0,.408-.181.826.826,0,0,0,.181-.5.575.575,0,0,0-.045-.272c-.045-.091-.091-.136-.136-.227a.989.989,0,0,0-.227-.181l-.272-.136c-.091-.045-.227-.136-.318-.181a1.2,1.2,0,0,1-.272-.227.731.731,0,0,1-.181-.318,1.257,1.257,0,0,1-.045-.408,1.63,1.63,0,0,1,.091-.5.952.952,0,0,1,.59-.59,1.324,1.324,0,0,1,.408-.091,2.277,2.277,0,0,1,.544.091,2.129,2.129,0,0,1,.408.272l-.318.363a.731.731,0,0,0-.59-.272.409.409,0,0,0-.227.045c-.091.045-.136.045-.181.136a.992.992,0,0,0-.136.227.673.673,0,0,0-.045.318.575.575,0,0,0,.045.272.627.627,0,0,0,.136.181c.045.045.136.091.181.181s.136.091.227.136.227.136.318.181a1.2,1.2,0,0,1,.272.227,1.921,1.921,0,0,1,.227.318A.746.746,0,0,1,179.829,67.9Zm2.949.227a.864.864,0,0,1-.227.454,1.223,1.223,0,0,1-.363.318,1.135,1.135,0,0,1-.59.136,1.256,1.256,0,0,1-.59-.136.84.84,0,0,1-.363-.318,2.119,2.119,0,0,1-.227-.454,2.218,2.218,0,0,1-.045-.59V64.859h.5V67.49a1.255,1.255,0,0,0,.045.408,1.067,1.067,0,0,0,.091.363.547.547,0,0,0,.227.227.771.771,0,0,0,.726,0c.091-.045.136-.136.227-.227a.855.855,0,0,0,.091-.363c0-.136.045-.272.045-.408V64.859h.5v2.676A1.256,1.256,0,0,1,182.777,68.125Zm2.994-2.087a1.63,1.63,0,0,1-.091.5.988.988,0,0,1-.227.363,1.378,1.378,0,0,1-.318.227,1.325,1.325,0,0,1-.408.091h-.544v1.769h-.5V64.9h1.043a1,1,0,0,1,.363.045,1.358,1.358,0,0,1,.363.181,2.514,2.514,0,0,1,.272.363C185.816,65.63,185.771,65.811,185.771,66.038Zm-.544,0a.723.723,0,0,0-.181-.544.582.582,0,0,0-.454-.181h-.454v1.452h.454a.582.582,0,0,0,.454-.181A.663.663,0,0,0,185.227,66.038Zm1.089,2.949V64.9h1.724v.454h-1.225v1.27h1.134v.454h-1.134v1.452h1.27v.454Zm4.037,0-.68-1.814h-.454v1.814h-.5V64.9h1.043a1.255,1.255,0,0,1,.408.045,1.359,1.359,0,0,1,.363.181.716.716,0,0,1,.227.363,1.93,1.93,0,0,1,.091.5,1.4,1.4,0,0,1-.045.454.731.731,0,0,1-.181.318l-.227.227a.293.293,0,0,1-.227.091l.771,1.905Zm0-2.994a.885.885,0,0,0-.045-.363.991.991,0,0,0-.136-.227.346.346,0,0,0-.227-.091,1.966,1.966,0,0,1-.227-.045h-.454v1.406h.5a.526.526,0,0,0,.454-.181A.808.808,0,0,0,190.353,65.993Zm1.134,2.994V64.9h.5v4.083Zm3.946-2.087a5.025,5.025,0,0,1-.091.862,1.536,1.536,0,0,1-.272.68,2.151,2.151,0,0,1-.454.454,1.346,1.346,0,0,1-1.179,0,1.442,1.442,0,0,1-.454-.454,1.536,1.536,0,0,1-.272-.68,4.14,4.14,0,0,1,0-1.724,1.536,1.536,0,0,1,.272-.68,2.151,2.151,0,0,1,.454-.454,1.346,1.346,0,0,1,1.179,0,1.088,1.088,0,0,1,.454.454,1.536,1.536,0,0,1,.272.68A2.652,2.652,0,0,1,195.433,66.9Zm-.544,0a2.788,2.788,0,0,0-.045-.635,2.559,2.559,0,0,0-.181-.544,1.252,1.252,0,0,0-.272-.363.552.552,0,0,0-.726,0,2.516,2.516,0,0,0-.272.363.967.967,0,0,0-.136.544c0,.227-.045.408-.045.635a2.789,2.789,0,0,0,.045.635l.136.544a2.516,2.516,0,0,0,.272.363.552.552,0,0,0,.726,0,2.515,2.515,0,0,0,.272-.363,1.53,1.53,0,0,0,.181-.544A2.788,2.788,0,0,0,194.889,66.9Zm2.9,2.087-.68-1.814h-.454v1.814h-.5V64.9H197.2a1.255,1.255,0,0,1,.408.045,1.359,1.359,0,0,1,.363.181.716.716,0,0,1,.227.363,1.928,1.928,0,0,1,.091.5,1.4,1.4,0,0,1-.045.454.731.731,0,0,1-.181.318l-.227.227a.293.293,0,0,1-.227.091l.771,1.905Zm-.045-2.994a.885.885,0,0,0-.045-.363.992.992,0,0,0-.136-.227.346.346,0,0,0-.227-.091,1.966,1.966,0,0,1-.227-.045h-.454v1.406h.5a.526.526,0,0,0,.454-.181C197.7,66.446,197.746,66.265,197.746,65.993Z" transform="translate(-16.392 -5.027)" fill="#06c"/></svg>