<svg xmlns="http://www.w3.org/2000/svg" width="361.359" height="163.225" viewBox="0 0 361.359 163.225"><g transform="translate(-501.641 -448.044)" opacity="0.35"><path d="M502.17,600.523c.488,0,.977.035,1.465.07l61.612-.07a14.553,14.553,0,0,1,25.991-.035h15a10.305,10.305,0,0,1,6-1.989,10.469,10.469,0,0,1,5.547,1.6,13.793,13.793,0,0,1-.349-3.175,14.6,14.6,0,0,1,22.014-12.56,2.173,2.173,0,0,0,1.012.523,10.2,10.2,0,0,1,5.756-1.779,10.723,10.723,0,0,1,3.14.488,10.026,10.026,0,0,1,5.547-1.64,10.158,10.158,0,0,1,10.117,9.21,10.2,10.2,0,0,1,15.037,8.931v.244l30.213-.035a10.2,10.2,0,0,1,15.979-4.291,14.611,14.611,0,0,1,28.887,3.1,8.473,8.473,0,0,1-.035.942,9.089,9.089,0,0,1,3.07-.454,10.573,10.573,0,0,1,3.593.663h2.617a10.181,10.181,0,0,1,10.64-9.7h0a9.945,9.945,0,0,1,5.024,1.6,13.793,13.793,0,0,1-.349-3.175,14.59,14.59,0,0,1,27.457-6.873,10.159,10.159,0,0,1,20.06,1.082,10.17,10.17,0,0,1,15,8.931,10.834,10.834,0,0,1-.384,2.826,14.54,14.54,0,0,1,16.955,5.128H862.9l-.344-147.137s-1.989,4.884-.733,6.8a7.582,7.582,0,0,0,.488.628,7.812,7.812,0,0,0-3.559,1.675c-3.21,2.617-4.4,7.257-2.617,10.536a9.414,9.414,0,0,0-2.058,1.221,9.512,9.512,0,0,0-2.9,4.012,3.939,3.939,0,0,0-2.337-1.012,5.9,5.9,0,0,0-5.756,4.71.565.565,0,0,0-.14-.244c0-.035,0-.035-.035-.035-1.221-2.268-4.047-2.721-6.35-1.116a6.081,6.081,0,0,0-2.163,2.791,6.259,6.259,0,0,0-8.268-.907,8.272,8.272,0,0,0-3.279,9.943,3.886,3.886,0,0,0,.174.384,4.812,4.812,0,0,0-1.361.628,6.15,6.15,0,0,0-2.3,2.512,1.757,1.757,0,0,0-.14-.454v-.035a4.238,4.238,0,0,0-5.585-2.178,4.143,4.143,0,0,0-.555.294,5.814,5.814,0,0,0-2.093,2.023,6.993,6.993,0,0,0-.384-1.465,6.061,6.061,0,0,0-5.477-3.873c-3.593-.1-6.873,2.861-7.4,6.8a4.193,4.193,0,0,0-5.024-1.779,5.54,5.54,0,0,0-3.489,6.21,5.054,5.054,0,0,0-2.268.314h-.035a5.209,5.209,0,0,0-2.512,7.606,6.977,6.977,0,0,0-2.407.419h-.035a7.9,7.9,0,0,0-4.815,9.071,8.877,8.877,0,0,0-1.675.349,7.99,7.99,0,0,0-5.059,5.442,7.543,7.543,0,0,0-8.408,4.117,4.732,4.732,0,0,0-3.175-.209,5.741,5.741,0,0,0-2.582,1.535,7.378,7.378,0,0,0-.768.349,4.512,4.512,0,0,0-5.364-3.456l-.009,0c-.035,0-.07.035-.14.035a5.087,5.087,0,0,0-2.861,1.779,6.51,6.51,0,0,0-7.361-4.152,7.519,7.519,0,0,0-6.036,8.059c0,.14.035.279.035.454a5.136,5.136,0,0,0-1.465,0,4.988,4.988,0,0,0-2.861,1.43,1.148,1.148,0,0,0,0-.488v.035a4.656,4.656,0,0,0-5.024-4.256h-.14a4.852,4.852,0,0,0-2.547,1.047,7.574,7.574,0,0,0,.07-1.535v-.035a6.707,6.707,0,0,0-6.978-6.419,6.6,6.6,0,0,0-3.489,1.151,3.244,3.244,0,0,1-.453.279,4.456,4.456,0,0,0-2.651-.768,4,4,0,0,0-1.43.279,4.421,4.421,0,0,0-2.547-.733,4.948,4.948,0,0,0-4.675,4.5,4.169,4.169,0,0,0-2.233-.558h-.035a4.91,4.91,0,0,0-4.815,4.78,6.048,6.048,0,0,0,.14,1.361,7.032,7.032,0,0,0-6.838.837,5.061,5.061,0,0,0-3.727-2.19,4.688,4.688,0,0,0-3.628,1.291.674.674,0,0,1,.035-.279v-.035a4.892,4.892,0,0,0-4.361-5.268,4.693,4.693,0,0,0-3.1.8,7.079,7.079,0,0,0-5.931-6.384,6.766,6.766,0,0,0-7.6,5.807l0,.019c-.035.14-.035.279-.07.454a6.221,6.221,0,0,0-1.361-.454,4.682,4.682,0,0,0-3.07.454,1.077,1.077,0,0,0,.1-.454v-.035a5.138,5.138,0,0,0-3.838-5.756,4.316,4.316,0,0,0-2.651.209,5.414,5.414,0,0,0,.419-1.465,7.647,7.647,0,0,0-2.3-6.908,6.464,6.464,0,0,0-9.139.221c-.072.076-.143.154-.211.233a5.239,5.239,0,0,0-3.07-4.919A4.457,4.457,0,0,0,626.4,511.3l0,.011-.1.314a5.445,5.445,0,0,0-1.989-1.291h-.035a4.449,4.449,0,0,0-5.652,2.721c-.035.1-.07.244-.1.349a3.649,3.649,0,0,0-.174,1.361,6.489,6.489,0,0,0-2.163-1.291h-.039a6.484,6.484,0,0,0-8.408,3.628,1.72,1.72,0,0,0-.14.454,9.649,9.649,0,0,0-1.535-.872,6.708,6.708,0,0,0-6.908.907,8.165,8.165,0,0,0-3.035-2.407,7,7,0,0,0-5.966-.07,5.924,5.924,0,0,0-2.442-2.372,5.238,5.238,0,0,0-2.9-.523,5.346,5.346,0,0,0-.8-.244,5.68,5.68,0,0,0-2.721-6.629,4.777,4.777,0,0,0-3.245-.558,8.3,8.3,0,0,0-3.873-8.547c-3.384-2.058-7.466-1.116-9.141,2.268-.07.14-.14.244-.209.384a5.618,5.618,0,0,0-4.361-1.919,1.455,1.455,0,0,0,.244-.384c0-.035,0-.035.035-.035h0a5.783,5.783,0,0,0-2.093-7.117,5.226,5.226,0,0,0-2.651-.977,5.969,5.969,0,0,0,.872-1.221,7.932,7.932,0,0,0-.209-7.536c-1.989-3.628-6.036-5.233-9.28-3.663a5.972,5.972,0,0,0-1.57-6.036c-2.058-2.023-4.954-2.128-6.629-.14a6.761,6.761,0,0,0-1.57-2.128l-.035-.035c-2.163-1.919-5.059-1.744-6.489.349a4.262,4.262,0,0,0-.558,1.221,9.556,9.556,0,0,0-1.71-2.2,7.854,7.854,0,0,0-3.838-2.093c-3.768-.8-6.943,1.779-6.978,6-1.43-2.721-4.291-4.152-6.559-3.349a10.3,10.3,0,0,0-2.721-8.234c-1.326-1.4-7.082-2.826-7.082-2.826V600.418A1.163,1.163,0,0,0,502.17,600.523Z" fill="#e2f4fd"/><path d="M750.116,551.227a12.316,12.316,0,0,0-12.036-9.734h0a7.434,7.434,0,0,0-10.4-1.513l-.063.048a7.355,7.355,0,0,0-2.2,2.651,12.35,12.35,0,0,0-5.233-1.186c-.279,0-.558.035-.872.035a8.967,8.967,0,0,0-17.618-.419,10.251,10.251,0,0,0-4.675-1.116,10.377,10.377,0,0,0-6.1,1.989,10.049,10.049,0,0,0-13.9-2.98l-.023.015a9.756,9.756,0,0,0-3.384,3.663,12.136,12.136,0,0,0-13.467,20.1c-.07,0-.1.035-.174.035h96.011a7.492,7.492,0,0,0,1.256-4.082A7.662,7.662,0,0,0,750.116,551.227Z" fill="#d1eefc"/><path d="M751.407,563.089a8.14,8.14,0,0,0-6.384-7.954,9.571,9.571,0,0,0-18.107-3.593,5.783,5.783,0,0,0-8.164.314,4.682,4.682,0,0,0-.977,1.465,15.658,15.658,0,0,0-21.875,3.384,17.075,17.075,0,0,0-2.093,3.942,5.836,5.836,0,0,0-7.745,1.744,8.4,8.4,0,0,0-11.757,1.64,8.1,8.1,0,0,0-1.675,5.059v.07a6.122,6.122,0,0,0-1.64,1.64h74.381A7.923,7.923,0,0,0,751.407,563.089Z" fill="#a5dff9"/><path d="M506.944,465.648a10.812,10.812,0,0,0-3.732-14.828A10.936,10.936,0,0,0,502,450.2v46.3a16.057,16.057,0,0,0,4.944-30.849Z" fill="#e2f4fd" fill-rule="evenodd"/><path d="M609.732,532.692l-.038-.027a14.611,14.611,0,0,0-6.524-2.582,14.949,14.949,0,0,0-13.363-16.36,14.468,14.468,0,0,0-6.768.907,15.2,15.2,0,0,0-3.175-4.431A21.016,21.016,0,0,0,566.9,483.456l-.048-.016a22.5,22.5,0,0,0-5.059-1.082,14.61,14.61,0,0,0-5.617-7.675,15.1,15.1,0,0,0-6.454-2.582,14.949,14.949,0,0,0-13.362-16.361,14.455,14.455,0,0,0-6.768.907,14.815,14.815,0,0,0-4.919-5.861,14.978,14.978,0,0,0-18.979,1.4l-1.047-.837A21.088,21.088,0,0,0,502,449.764V568.67a14.809,14.809,0,0,0,12.937,3.456,13.589,13.589,0,0,0,1.57,4.605,14.937,14.937,0,0,0,28.015-5.268,14.553,14.553,0,0,0,1.849,1.43,21.058,21.058,0,0,0,24,.174,15.024,15.024,0,0,0,13.924-2.444,14.617,14.617,0,0,0,3.454,3.419,14.987,14.987,0,0,0,22.677-17.479,14.765,14.765,0,0,0,2.861-3.035A14.946,14.946,0,0,0,609.732,532.692Z" fill="#d1eefc" fill-rule="evenodd"/><path d="M533.318,519.727a14.51,14.51,0,0,0-8.408-12.978,14.048,14.048,0,0,0-4.745-1.256,10.562,10.562,0,0,0-5.9-11.862,12.346,12.346,0,0,0-2.931-.872A19.172,19.172,0,0,0,502,478.17v59.68c.06-.008.12-.01.18-.02a10.587,10.587,0,0,0,7.908-6,2.312,2.312,0,0,1,.1-.279,10.988,10.988,0,0,0,2.617,1.535,14.413,14.413,0,0,0,12.28-.07c.384.244.8.488,1.221.733a7.845,7.845,0,0,0,7.012-14.025Z" fill="#bce6fb" fill-rule="evenodd"/><path d="M625.14,543.759a15.753,15.753,0,0,0-10.327,2.058c-1.6-6.21-7.292-11.2-14.757-12.281a19.508,19.508,0,0,0-16.223,5.024c-1.64-7.013-7.954-12.734-16.327-13.92a21.06,21.06,0,0,0-18.281,6.07,15.609,15.609,0,0,0-10.044,2.166,20.425,20.425,0,0,0-12.28-6.35,21.8,21.8,0,0,0-13.083,2.163A18.213,18.213,0,0,0,502,514.642v51.786a21.858,21.858,0,0,0,1.844-1.214,13.908,13.908,0,0,0,11.513,8.931c5.722.837,47.831,6.838,56.134,8.024a18.124,18.124,0,0,0,17.3-6.943,21.349,21.349,0,0,0,15.351,9.664c11.652,1.64,22.607-5.442,24.456-15.839.035-.244.07-.523.1-.8a13.179,13.179,0,0,0,8.408-9.734C638.362,551.47,633.024,544.911,625.14,543.759Z" fill="#a5dff9" fill-rule="evenodd"/><path d="M863,453.955c-.052.085-.109.164-.159.25a13.259,13.259,0,0,0-18.351,3.733,13.518,13.518,0,0,0-2.163,6.21,16,16,0,0,0-5.584,31.4h0v0h0a13.783,13.783,0,0,0,11.236,24.386A16.2,16.2,0,0,0,863,528.518Z" fill="#d1eefc" fill-rule="evenodd"/><path d="M863,484.757a14.94,14.94,0,0,0-17.57,16.2,15.27,15.27,0,0,0-6.873.349,14.872,14.872,0,0,0-10.117-1.884,15.274,15.274,0,0,0-4.6,1.57,14.951,14.951,0,0,0-27.387,1.291,14.97,14.97,0,0,0-20.967,2.93h0a14.772,14.772,0,0,0-3,9.175,14.993,14.993,0,0,0-10.711,16.921,14.49,14.49,0,0,0,.419,1.779,13.961,13.961,0,0,0-2.965.209,14.931,14.931,0,0,0-12.42,14.9,14.95,14.95,0,0,0,2.233,29.236,14.955,14.955,0,0,0,23.828,7.292,14.528,14.528,0,0,0,6.768,4.042,14.591,14.591,0,0,1,27.457-6.594,10.159,10.159,0,0,1,20.061,1.082,10.17,10.17,0,0,1,15,8.931,10.837,10.837,0,0,1-.384,2.826,14.583,14.583,0,0,1,13.467,1.675,15.95,15.95,0,0,0,2.3-4.117A14.315,14.315,0,0,0,863,593.2Z" fill="#bce6fb" fill-rule="evenodd"/><path d="M863,528.493a13.706,13.706,0,0,0-15.863,13.977,12.5,12.5,0,0,0,.733,3.907,20,20,0,0,0-10.083,1.709,19.651,19.651,0,0,0-32.62-13.885,13.656,13.656,0,0,0-17.77-7.56l-.058.024a13.837,13.837,0,0,0-7.989,8.757,19.642,19.642,0,0,0-33.667,20.235,13.706,13.706,0,0,0-9.524,13.5v.1a14.521,14.521,0,0,0-5.582-1.012,13.724,13.724,0,0,0-8.094,24.421l-.872,1.256a10.213,10.213,0,0,1,4.57,2.128,14.612,14.612,0,0,1,28.893,3.113,8.457,8.457,0,0,1-.035.942,9.089,9.089,0,0,1,3.07-.454,11.088,11.088,0,0,1,3.384.558h2.861a10.17,10.17,0,0,1,15.665-8.024,13.793,13.793,0,0,1-.349-3.175,14.59,14.59,0,0,1,27.457-6.873,10.159,10.159,0,0,1,20.06,1.081,10.17,10.17,0,0,1,15,8.931,10.834,10.834,0,0,1-.384,2.826,14.529,14.529,0,0,1,16.641,4.71l4.556-.161Z" fill="#a5dff9"/><path d="M863,608.318V574.5a13.767,13.767,0,0,0-8.15-2.687,15.725,15.725,0,0,0-3.384.384,13.84,13.84,0,0,0-13.746-13.85h-.039a13.443,13.443,0,0,0-4.849.907,10,10,0,0,0,.384-2.686,9.589,9.589,0,0,0-9.549-9.629h-.08a9.686,9.686,0,0,0-4.606,1.146,9.673,9.673,0,0,0-19.084-1.047,13.8,13.8,0,0,0-25.991,6.489,15.3,15.3,0,0,0,.314,3.07,9.011,9.011,0,0,0-5.233-1.535,9.589,9.589,0,0,0-9.629,9.549v.08a4.573,4.573,0,0,0,.07.977,9.363,9.363,0,0,0-5.931-2.058,11.1,11.1,0,0,0-2.861.384v-.907a13.812,13.812,0,0,0-27.317-2.931,9.437,9.437,0,0,0-6.07-2.233,9.589,9.589,0,0,0-9.629,9.549v.673a9.587,9.587,0,0,0-14.792.733,13.783,13.783,0,0,0-8.722-3.14,13.444,13.444,0,0,0-4.849.907,10,10,0,0,0,.384-2.686,9.589,9.589,0,0,0-9.553-9.625h-.077a9.685,9.685,0,0,0-4.6,1.151,9.768,9.768,0,0,0-9.629-8.722,9.561,9.561,0,0,0-5.233,1.535,9.393,9.393,0,0,0-2.931-.488,9.492,9.492,0,0,0-5.442,1.709,3.679,3.679,0,0,1-.977-.488,13.842,13.842,0,0,0-20.828,11.862v.035a15.294,15.294,0,0,0,.314,3.07,9.011,9.011,0,0,0-5.233-1.535,9.589,9.589,0,0,0-9.629,9.549v.08a4.573,4.573,0,0,0,.07.977,9.357,9.357,0,0,0-5.931-2.058,11.1,11.1,0,0,0-2.861.384v-.91a13.808,13.808,0,0,0-27.317-2.9,9.437,9.437,0,0,0-6.07-2.233,9.648,9.648,0,0,0-9.628,9.147,11.963,11.963,0,0,0-1.535-.314,9.8,9.8,0,0,0-11.513.314,13.629,13.629,0,0,0-10.711-5.094,14.593,14.593,0,0,0-7.012,1.919,13.786,13.786,0,0,0-12.071-7.152,15.725,15.725,0,0,0-3.384.384,13.815,13.815,0,0,0-5.855-11.3v47.168a14.7,14.7,0,0,1,12.961,7.538,14.531,14.531,0,0,1,18.7,3.314,10.1,10.1,0,0,1,12.141-.384,12.36,12.36,0,0,1,1.64.314,10.145,10.145,0,0,1,10.117-9.629,9.989,9.989,0,0,1,6.419,2.3,14.611,14.611,0,0,1,28.887,3.1,8.473,8.473,0,0,1-.035.942,9.089,9.089,0,0,1,3.07-.454,10.125,10.125,0,0,1,6.245,2.163,10,10,0,0,1,8.722-11.129,8.842,8.842,0,0,1,1.361-.07,10.47,10.47,0,0,1,5.547,1.6,13.786,13.786,0,0,1-.349-3.175,14.6,14.6,0,0,1,22.014-12.56,2.173,2.173,0,0,0,1.012.523,10.2,10.2,0,0,1,5.756-1.779,10.722,10.722,0,0,1,3.14.488,10.026,10.026,0,0,1,5.547-1.64,10.159,10.159,0,0,1,10.117,9.21,10.17,10.17,0,0,1,15,8.931,10.837,10.837,0,0,1-.384,2.826A14.676,14.676,0,0,1,694,605.188a10.091,10.091,0,0,1,14.11-2.142l.02.014a10.528,10.528,0,0,1,1.465,1.326c0-.174-.035-.384-.035-.558a10.164,10.164,0,0,1,16.607-7.85,14.611,14.611,0,0,1,28.887,3.1,8.473,8.473,0,0,1-.035.942,9.087,9.087,0,0,1,3.07-.453,10.125,10.125,0,0,1,6.245,2.163,10.145,10.145,0,0,1,15.6-9.594,13.79,13.79,0,0,1-.349-3.175,14.59,14.59,0,0,1,27.457-6.873,10.159,10.159,0,0,1,20.06,1.082,10.17,10.17,0,0,1,15,8.931,10.837,10.837,0,0,1-.384,2.826,14.626,14.626,0,0,1,18.8,8.513,14.374,14.374,0,0,1,.942,5.128v.035A14.556,14.556,0,0,1,863,608.318Z" fill="#8ed8f8"/></g></svg>